<svg width="1250" height="1029" viewBox="0 0 1250 1029" fill="none" xmlns="http://www.w3.org/2000/svg">
<path d="M161.463 32.2292L406.463 1.22925L309.963 190.729L161.463 32.2292Z" stroke="#0217FF" stroke-width="2"/>
<path d="M29.9629 233.729L150.996 40.7295L298.463 198.229L29.9629 233.729Z" stroke="#0217FF" stroke-width="2"/>
<path d="M608.463 142.229L420.963 2.22921L323.463 194.229L608.463 142.229Z" stroke="#0217FF" stroke-width="2"/>
<path d="M617.464 429.729L617.464 153.729L327.463 206.229L617.464 429.729Z" stroke="#0217FF" stroke-width="2"/>
<path d="M218.963 392.229L300.463 211.229L30.9634 247.229L218.963 392.229Z" stroke="#0217FF" stroke-width="2"/>
<path d="M212.463 402.729L25.9629 257.229L78.4629 546.229L212.463 402.729Z" stroke="#0217FF" stroke-width="2"/>
<path d="M381.963 643.229L85.4629 555.229L221.463 412.229L381.963 643.229Z" stroke="#0217FF" stroke-width="2"/>
<path d="M389.5 658.229L93 569.729L291 797.729L389.5 658.229Z" stroke="#0217FF" stroke-width="2"/>
<path d="M600.963 1024.23L397.463 666.729L298.463 807.229L600.963 1024.23Z" stroke="#0217FF" stroke-width="2"/>
<path d="M614 444.229L313.5 212.229L228 401.229L400 645.729L614 444.229Z" stroke="#0217FF" stroke-width="2"/>
<path d="M617.5 1024.73V458.229L406.5 656.729L617.5 1024.73Z" stroke="#0217FF" stroke-width="2"/>
<path d="M1088.41 32.2292L843.409 1.22925L939.909 190.729L1088.41 32.2292Z" stroke="#0217FF" stroke-width="2"/>
<path d="M1219.91 233.729L1098.88 40.7295L951.409 198.229L1219.91 233.729Z" stroke="#0217FF" stroke-width="2"/>
<path d="M641.409 142.229L828.909 2.22921L926.409 194.229L641.409 142.229Z" stroke="#0217FF" stroke-width="2"/>
<path d="M632.408 429.729L632.408 153.729L922.409 206.229L632.408 429.729Z" stroke="#0217FF" stroke-width="2"/>
<path d="M1030.91 392.229L949.409 211.229L1218.91 247.229L1030.91 392.229Z" stroke="#0217FF" stroke-width="2"/>
<path d="M1037.41 402.729L1223.91 257.229L1171.41 546.229L1037.41 402.729Z" stroke="#0217FF" stroke-width="2"/>
<path d="M867.909 643.229L1164.41 555.229L1028.41 412.229L867.909 643.229Z" stroke="#0217FF" stroke-width="2"/>
<path d="M860.372 658.229L1156.87 569.729L958.872 797.729L860.372 658.229Z" stroke="#0217FF" stroke-width="2"/>
<path d="M648.909 1024.23L852.409 666.729L951.409 807.229L648.909 1024.23Z" stroke="#0217FF" stroke-width="2"/>
<path d="M635.872 444.229L936.372 212.229L1021.87 401.229L849.872 645.729L635.872 444.229Z" stroke="#0217FF" stroke-width="2"/>
<path d="M632.372 1024.73V458.229L843.372 656.729L632.372 1024.73Z" stroke="#0217FF" stroke-width="2"/>
</svg>
