<svg width="500" height="415" viewBox="0 0 500 415" fill="none" xmlns="http://www.w3.org/2000/svg">
<path d="M64.5918 13.6305L162.602 1.22925L123.998 77.037L64.5918 13.6305Z" stroke="#0217FF" stroke-width="2"/>
<path d="M11.9864 94.2387L60.4044 17.0308L119.397 80.0373L11.9864 94.2387Z" stroke="#0217FF" stroke-width="2"/>
<path d="M243.41 57.6349L168.402 1.62915L129.398 78.4371L243.41 57.6349Z" stroke="#0217FF" stroke-width="2"/>
<path d="M247.011 172.647L247.011 62.2355L130.999 83.2376L247.011 172.647Z" stroke="#0217FF" stroke-width="2"/>
<path d="M87.5943 157.645L120.197 85.2378L12.3866 99.6393L87.5943 157.645Z" stroke="#0217FF" stroke-width="2"/>
<path d="M84.9939 161.846L10.3862 103.64L31.3884 219.251L84.9939 161.846Z" stroke="#0217FF" stroke-width="2"/>
<path d="M152.801 258.055L34.1887 222.852L88.5943 165.646L152.801 258.055Z" stroke="#0217FF" stroke-width="2"/>
<path d="M155.816 264.056L37.2039 228.653L116.412 319.862L155.816 264.056Z" stroke="#0217FF" stroke-width="2"/>
<path d="M240.41 410.471L159.002 267.457L119.397 323.662L240.41 410.471Z" stroke="#0217FF" stroke-width="2"/>
<path d="M245.625 178.447L125.413 85.6379L91.2092 161.246L160.016 259.056L245.625 178.447Z" stroke="#0217FF" stroke-width="2"/>
<path d="M247.025 410.671V184.048L162.617 263.456L247.025 410.671Z" stroke="#0217FF" stroke-width="2"/>
<path d="M435.408 13.6305L337.398 1.22925L376.002 77.037L435.408 13.6305Z" stroke="#0217FF" stroke-width="2"/>
<path d="M488.014 94.2387L439.596 17.0308L380.603 80.0373L488.014 94.2387Z" stroke="#0217FF" stroke-width="2"/>
<path d="M256.59 57.6349L331.598 1.62915L370.602 78.4371L256.59 57.6349Z" stroke="#0217FF" stroke-width="2"/>
<path d="M252.989 172.647L252.989 62.2355L369.001 83.2376L252.989 172.647Z" stroke="#0217FF" stroke-width="2"/>
<path d="M412.406 157.645L379.803 85.2378L487.613 99.6393L412.406 157.645Z" stroke="#0217FF" stroke-width="2"/>
<path d="M415.006 161.846L489.614 103.64L468.612 219.251L415.006 161.846Z" stroke="#0217FF" stroke-width="2"/>
<path d="M347.199 258.055L465.812 222.852L411.406 165.646L347.199 258.055Z" stroke="#0217FF" stroke-width="2"/>
<path d="M344.184 264.056L462.796 228.653L383.588 319.862L344.184 264.056Z" stroke="#0217FF" stroke-width="2"/>
<path d="M259.59 410.471L340.998 267.457L380.603 323.662L259.59 410.471Z" stroke="#0217FF" stroke-width="2"/>
<path d="M254.375 178.447L374.587 85.6379L408.791 161.246L339.983 259.056L254.375 178.447Z" stroke="#0217FF" stroke-width="2"/>
<path d="M252.975 410.671V184.048L337.383 263.456L252.975 410.671Z" stroke="#0217FF" stroke-width="2"/>
</svg>
